<?xml version="1.0" encoding="utf-8"?>
<!-- Generator: Adobe Illustrator 23.0.3, SVG Export Plug-In . SVG Version: 6.00 Build 0)  -->
<svg version="1.1" id="Layer_1" xmlns="http://www.w3.org/2000/svg" xmlns:xlink="http://www.w3.org/1999/xlink" x="0px" y="0px"
	 viewBox="0 0 181.9 91" style="enable-background:new 0 0 181.9 91;" xml:space="preserve">
<style type="text/css">
	.st0{fill:#FBBF14;}
</style>
<g>
	<path class="st0" d="M181.9,13.5c0,0-0.1,0-0.1,0v-0.1c0-0.2,0-0.5,0-0.7c-0.2,0.1-0.2-0.1-0.2-0.2c-0.5-2.6-1.5-4.9-3.2-6.9
		c-1.9-2.3-4.3-3.9-7.1-4.9c-1.4-0.5-3-0.7-4.5-0.7c-50.7,0-101.3,0-152,0c-2.7,0-5.2,0.8-7.5,2.2C4.7,3.8,2.7,6,1.4,8.9
		c-0.5,1.1-0.9,2.3-1.1,3.6c0,0.2,0,0.2-0.2,0.3c0,0.2,0,0.5,0,0.7h0.1l-0.1,0.1c0,21.3,0,42.6,0,63.8l0.1,0.1c0,0.1,0,0.1-0.1,0
		c0,0.3,0,0.5,0,0.8c0.2-0.1,0.2,0,0.2,0.2c0.4,2.3,1.3,4.3,2.6,6.2c1.2,1.7,2.7,3.1,4.5,4.1c1.9,1.2,3.9,1.8,6.1,2.1
		c0.6,0.1,1.2,0.1,1.8,0.1c50.5,0,101,0,151.5,0c3.4,0,6.5-1.1,9.2-3.2c2-1.5,3.4-3.4,4.5-5.6c0.6-1.2,1-2.4,1.2-3.7
		c0-0.2,0-0.2,0.2-0.3c0-0.3,0-0.5,0-0.8h-0.1l0.1-0.1C181.9,56,181.9,34.7,181.9,13.5z M40.5,68.8c0,0.5-0.1,0.6-0.6,0.6
		c-3.6,0-7.1,0-10.7,0c-0.5,0-0.6-0.1-0.6-0.6c0.1-8.3,0.1-16.5,0.1-24.7c0-8.2,0-16.4,0-24.5c0-0.5,0.1-0.6,0.6-0.6
		c3.6,0,7.1,0,10.7,0c0.5,0,0.5,0.1,0.5,0.6C40.5,36,40.5,52.4,40.5,68.8z M86,68.8c0,0.4-0.1,0.6-0.5,0.6c-3.2,0-6.4,0-9.6,0
		c-0.5,0-0.6-0.1-0.6-0.6c0-8.7,0-17.5,0-26.2c0-0.2,0-0.4,0-0.6h-0.1c-0.4,2.1-0.7,4.1-1.1,6.2c-0.3,1.8-0.7,3.7-1,5.5
		c-0.3,1.8-0.6,3.7-0.9,5.5c-0.3,1.6-0.6,3.2-0.8,4.8c-0.3,1.7-0.6,3.3-0.9,5c-0.1,0.4-0.2,0.5-0.6,0.5c-2.3,0-4.5,0-6.8,0
		c-0.2,0-0.4,0-0.4-0.3c-0.4-2.6-0.9-5.2-1.4-7.8c-0.5-2.7-1-5.3-1.5-8c-0.5-2.8-0.9-5.6-1.5-8.4c-0.2-1-0.3-2-0.6-3.1
		c0,0.2,0,0.4,0,0.6c0,8.8,0,17.6,0,26.4c0,0.5-0.1,0.7-0.6,0.7c-3.3,0-6.6,0-9.8,0c-0.5,0-0.6-0.1-0.6-0.6c0-16.4,0-32.8,0-49.2
		c0-0.4,0.1-0.6,0.5-0.6c4.7,0,9.4,0,14.1,0c0.3,0,0.5,0,0.6,0.4c0.3,2.1,0.7,4.2,1.1,6.3c0.4,2.3,0.8,4.5,1.2,6.8
		c0.3,1.9,0.6,3.7,0.9,5.6c0.6,1.3,0.9,2.8,1.1,4.2c0.4-1.8,0.5-3.5,0.8-5.3c0.2-1.4,0.3-2.7,0.5-4.1c0.2-1.3,0.4-2.6,0.5-3.9
		c0.1-1,0.2-2,0.4-3c0.1-1.1,0.2-2.1,0.4-3.2c0.2-1,0.3-2.1,0.4-3.1c0.1-0.9,0-0.9,0.9-0.9c5.1,0,10.2,0,15.3,0
		c0.5,0,0.6,0.1,0.6,0.6C86,36,86,52.4,86,68.8z M122.5,32.1c0,9,0,18,0,27c0,2.4-0.8,4.6-2.7,6.2c-1.3,1.1-2.9,1.8-4.5,2.2
		c-2.2,0.6-4.5,0.9-6.8,0.9c-5.2,0.2-10.3,0-15.5,0.1c-0.5,0-0.4-0.3-0.4-0.6c-0.2-7.9-0.2-16-0.2-24.1c0-8.1,0-16.1,0-24.2
		c0-0.6,0.2-0.7,0.7-0.7c5.4,0,10.7,0,16.1,0c2.3,0,4.6,0.1,6.8,1c1.8,0.8,3.6,1.7,4.8,3.4c0.8,1.1,1.2,2.4,1.5,3.8
		C122.6,28.8,122.5,30.4,122.5,32.1z M156.8,63.7c0,2.8-2.2,4.6-4.3,5c-1.5,0.3-3,0.3-4.5,0.2c-1.5-0.1-2.9-0.6-4.3-1.1
		c-1.1-0.4-2.3-0.8-3.5-1.1c-0.5-0.1-0.7,0.1-0.9,0.4c-0.3,0.6-0.5,1.2-0.6,1.8c-0.1,0.3-0.2,0.4-0.5,0.4c-3.3,0-6.6,0-9.9,0
		c-0.3,0-0.4-0.1-0.4-0.3c0-0.1,0-0.2,0-0.3c0-16.3,0-32.6,0-49c0-0.6,0.1-0.7,0.7-0.7c3.8,0,7.6,0,11.4,0c0.7,0,0.7,0,0.7,0.8
		c0.2,3.4,0.2,6.9,0.2,10.5c1.9-1.3,3.9-2.5,6.1-3.1c2.8-0.7,5.2-0.1,7.4,1.7c1.6,1.3,2.4,3,2.4,5.1
		C156.8,43.9,156.8,53.8,156.8,63.7z"/>
	<path class="st0" d="M0,13.5C0,13.5,0.1,13.5,0,13.5L0,13.5z"/>
	<path class="st0" d="M0,77.5C0,77.5,0.1,77.5,0,77.5C0,77.4,0,77.4,0,77.5z"/>
	<path class="st0" d="M109,28.2c-0.2-0.5-0.5-0.9-1-1.1c-1-0.5-2.1-0.4-3.2-0.5c-0.4,0-0.5,0.1-0.6,0.3c0,0.1,0,0.2,0,0.3
		c0,5.4,0,10.8,0,16.2c0,3.7,0,7.3,0,11c0,1.8,0,3.6,0,5.4c0,0.4,0.1,0.5,0.5,0.5c0.8,0,1.5,0,2.3-0.1c1.2-0.3,2.1-0.9,2.1-2.5
		c0-9.6,0-19.2,0-28.8C109.1,28.7,109.1,28.5,109,28.2C109,28.3,109,28.3,109,28.2z"/>
	<path class="st0" d="M142.8,32.7c-0.6,0.1-1.1,0.2-1.1,1.4c0,4.3,0,8.7,0,13c0,4.3,0,8.6,0,13.1c0,0.5,0.1,0.9,0.4,1.3
		c0.4,0.6,1,0.8,1.6,0.6c0.7-0.2,0.9-0.5,0.9-1.4c0-8.6,0-17.2,0-25.8c0-0.3,0-0.7-0.1-1C144.2,33,143.7,32.6,142.8,32.7z"/>
</g>
</svg>
